<?xml version="1.0" encoding="UTF-8"?>
<svg class="svg-inline--fa fa-vrchat-shield-verified css-123sfmv css-1efeorg e9fqopp0" aria-label="Shield Badge" aria-labelledby="svg-inline--fa-title-lw3w9yZDtkpj" data-icon="vrchat-shield-verified" data-prefix="vrchat" role="presentation" version="1.1" viewBox="0 0 64 64" xmlns="http://www.w3.org/2000/svg" xmlns:cc="http://creativecommons.org/ns#" xmlns:dc="http://purl.org/dc/elements/1.1/" xmlns:rdf="http://www.w3.org/1999/02/22-rdf-syntax-ns#">
 <title id="svg-inline--fa-title-lw3w9yZDtkpj">Age Verified</title>
 <path d="M55.49,10.87c-10-.3-18.54-4.45-22.5-10.34-.24-.36-.62-.53-.99-.53s-.75.18-.99.53c-3.96,5.89-12.5,10.04-22.5,10.34-.64.02-1.15.54-1.15,1.18v22.78c0,7.42,3.52,14.4,9.49,18.82l13.08,9.67c.62.46,1.34.68,2.07.68s1.46-.23,2.07-.68l1.86-1.38c-.85-.7-1.64-1.48-2.34-2.33l-1.46,1.08s-.08.04-.13.04-.09-.01-.13-.04l-13.08-9.67c-5.11-3.78-8.16-9.83-8.16-16.19V14.03c8.81-.7,16.65-4.18,21.38-9.46,4.73,5.28,12.56,8.77,21.38,9.46v17.52c1.15.42,2.23.96,3.25,1.61V12.05c0-.64-.51-1.16-1.15-1.18Z M48.72,18.46v12.05c-.49-.05-.99-.07-1.5-.07-9.8,0-17.78,7.98-17.78,17.78,0,1.61.22,3.17.62,4.65l-8.35-6.18c-4.05-2.99-6.44-7.73-6.44-12.77v-15.46c0-.43.34-.79.78-.8,6.79-.2,12.59-3.02,15.28-7.02h-.02c.33-.48,1.03-.48,1.35,0,2.69,4,8.49,6.82,15.28,7.02.43.01.78.36.78.8Z M47.22,33.44c-8.16,0-14.78,6.62-14.78,14.78s6.62,14.78,14.78,14.78,14.78-6.62,14.78-14.78-6.62-14.78-14.78-14.78ZM57.53,43.56l-12.7,12.63c-.21.21-.55.21-.76,0l-7.16-7.14c-.28-.28-.28-.73,0-1.01l2.26-2.26c.29-.28.74-.28,1.03,0l4.26,4.24,9.78-9.72c.29-.28.75-.28,1.03,0l2.26,2.25c.29.28.29.73,0,1.01Z" fill="currentColor"/>
 <metadata>
  <rdf:RDF>
   <cc:Work rdf:about="">
    <dc:title>Age Verified</dc:title>
   </cc:Work>
  </rdf:RDF>
 </metadata>
</svg>
