<?xml version="1.0" encoding="UTF-8"?>
<svg class="svg-inline--fa fa-vrchat-shield css-123sfmv css-1efeorg e9fqopp0" aria-label="Shield Badge" aria-labelledby="svg-inline--fa-title-RK5IslM2B8TS" data-icon="vrchat-shield" data-prefix="vrchat" role="presentation" version="1.1" viewBox="0 0 64 64" xmlns="http://www.w3.org/2000/svg">
 <path d="m55.49 10.87c-10-0.3-18.54-4.45-22.5-10.34-0.24-0.36-0.62-0.53-0.99-0.53s-0.75 0.18-0.99 0.53c-3.96 5.89-12.5 10.04-22.5 10.34-0.64 0.02-1.15 0.54-1.15 1.18v22.78c0 7.42 3.52 14.4 9.49 18.82l13.08 9.67c0.62 0.46 1.34 0.68 2.07 0.68s1.46-0.23 2.07-0.68l13.08-9.67c5.97-4.41 9.49-11.39 9.49-18.82v-22.78c0-0.64-0.51-1.16-1.15-1.18zm-2.12 23.96c0 6.36-3.05 12.41-8.16 16.19l-13.08 9.67s-0.08 0.04-0.13 0.04-0.09-0.01-0.13-0.04l-13.08-9.67c-5.11-3.78-8.16-9.83-8.16-16.19v-20.8c8.81-0.7 16.65-4.18 21.38-9.46 4.73 5.28 12.56 8.77 21.38 9.46v20.8h-0.02zm-22.04-24.19c-2.69 4-8.49 6.82-15.28 7.02-0.44 0.01-0.78 0.37-0.78 0.8v15.46c0 5.04 2.39 9.78 6.44 12.77l8.88 6.57c0.84 0.62 1.98 0.62 2.81 0l8.88-6.57c4.05-3 6.44-7.74 6.44-12.77v-15.46c0-0.44-0.35-0.79-0.78-0.8-6.79-0.2-12.59-3.02-15.28-7.02-0.32-0.48-1.02-0.48-1.35 0h0.02z" fill="currentColor"/>
</svg>
